<svg width="30" height="30" viewBox="0 0 30 30" fill="none" xmlns="http://www.w3.org/2000/svg">
<g clip-path="url(#clip0_4418_140)">
<circle cx="15" cy="15" r="15" fill="#744037"/>
<g clip-path="url(#clip1_4418_140)">
<path fill-rule="evenodd" clip-rule="evenodd" d="M9.20239 16.6409C9.23796 16.653 9.27385 16.6614 9.30972 16.6666C9.34883 16.7586 9.39936 16.8774 9.45831 17.0165C9.60218 17.3558 9.79604 17.8147 9.99614 18.2935C10.4042 19.2698 10.8158 20.2763 10.9067 20.5644C11.0193 20.9205 11.1382 21.1627 11.2681 21.328C11.3353 21.4135 11.4129 21.4881 11.5038 21.5446C11.5495 21.573 11.5979 21.5964 11.6483 21.6137C11.6505 21.6146 11.6527 21.6153 11.655 21.616C11.915 21.7142 12.152 21.6733 12.3004 21.6233C12.3799 21.5965 12.4441 21.5643 12.4897 21.5381C12.5129 21.5247 12.5325 21.5123 12.5481 21.5017L12.5518 21.4993L14.8481 20.0672L17.5006 22.1008C17.5397 22.1307 17.5824 22.1559 17.6276 22.1757C17.9462 22.3147 18.2548 22.3632 18.5451 22.3235C18.8349 22.284 19.0649 22.1623 19.2362 22.0252C19.4039 21.8911 19.5176 21.7407 19.5884 21.6291C19.6245 21.5721 19.6517 21.5216 19.6709 21.483C19.6804 21.4636 19.6882 21.4469 19.6942 21.4335L19.7018 21.4157L19.7047 21.4088L19.706 21.4058L19.7064 21.4045L19.707 21.4032C19.7209 21.3683 19.7316 21.3322 19.7389 21.2954L22.1604 9.08723C22.1681 9.04819 22.172 9.00847 22.172 8.96867C22.172 8.61116 22.0373 8.27121 21.7205 8.06492C21.4498 7.88861 21.1482 7.88102 20.9577 7.89548C20.752 7.91109 20.5622 7.96185 20.4348 8.0024C20.3685 8.02351 20.3128 8.04387 20.2728 8.05941C20.2526 8.06721 20.2361 8.07392 20.2238 8.07903L20.2146 8.08291L6.63466 13.4101L6.6329 13.4107C6.62425 13.4139 6.61313 13.4181 6.59993 13.4232C6.57364 13.4334 6.5384 13.4478 6.49725 13.4665C6.41699 13.5029 6.30439 13.5597 6.18885 13.6388C6.00425 13.7652 5.57973 14.1115 5.65122 14.6829C5.70824 15.1388 6.02055 15.4188 6.21083 15.5534C6.31531 15.6273 6.41458 15.6801 6.48686 15.7146C6.5204 15.7305 6.59003 15.7588 6.62024 15.7711L6.62786 15.7742L9.20239 16.6409ZM20.6898 9.20514L20.6879 9.20596C20.6811 9.20891 20.6744 9.21172 20.6675 9.21441L7.07109 14.5481C7.06399 14.5508 7.05684 14.5535 7.04964 14.556L7.04208 14.5589C7.03338 14.5623 7.01873 14.5682 7.00036 14.5765C6.98993 14.5812 6.97905 14.5864 6.96796 14.592C6.9832 14.6006 6.99778 14.608 7.01074 14.6141C7.02318 14.6201 7.03267 14.6241 7.03786 14.6262L9.59125 15.4859C9.63798 15.5016 9.68155 15.5224 9.72154 15.5476L18.1527 10.6121L18.1606 10.6074C18.1667 10.6038 18.1748 10.5991 18.1845 10.5936C18.2036 10.5828 18.23 10.5684 18.2613 10.5524C18.3198 10.5226 18.4135 10.4784 18.519 10.4458C18.5923 10.4231 18.8089 10.3592 19.043 10.4343C19.1874 10.4806 19.337 10.5802 19.4343 10.749C19.4826 10.8328 19.5084 10.917 19.5209 10.9941C19.554 11.1156 19.5487 11.2355 19.5228 11.3391C19.4669 11.5621 19.3103 11.7361 19.1677 11.8692C19.0455 11.9832 17.4648 13.5074 15.9056 15.0119C15.1279 15.7622 14.3583 16.5052 13.783 17.0604L13.4052 17.4252L18.1761 21.0829C18.2855 21.1221 18.3502 21.1202 18.3801 21.116C18.4158 21.1111 18.445 21.0974 18.4748 21.0736C18.5081 21.047 18.5373 21.0109 18.559 20.9765L18.5599 20.9751L20.9085 9.13458C20.8736 9.14296 20.8383 9.15293 20.8044 9.16374C20.7659 9.17598 20.7342 9.18765 20.7132 9.1958C20.7027 9.19984 20.6953 9.2029 20.6912 9.20459L20.6898 9.20514ZM13.815 19.2752L12.8632 18.5454L12.6326 20.0126L13.815 19.2752ZM11.99 17.0974L12.9365 16.1836C13.5119 15.6282 14.2816 14.8853 15.0593 14.1348L15.8495 13.3726L10.5519 16.4737L10.5804 16.5407C10.7248 16.8813 10.9195 17.3422 11.1206 17.8235C11.2711 18.1834 11.4283 18.5623 11.5716 18.9132L11.8016 17.4503C11.8237 17.3093 11.8926 17.1873 11.99 17.0974Z" fill="white"/>
</g>
</g>
<defs>
<clipPath id="clip0_4418_140">
<rect width="30" height="30" fill="white"/>
</clipPath>
<clipPath id="clip1_4418_140">
<rect width="19.5" height="19.5" fill="white" transform="translate(5.25 5.25)"/>
</clipPath>
</defs>
</svg>
